<svg width="1488" height="751" viewBox="0 0 1488 751" fill="none" xmlns="http://www.w3.org/2000/svg">
<g clip-path="url(#clip0_7037_11416)">
<rect width="1488" height="751" fill="#141529"/>
<g opacity="0.17" filter="url(#filter0_f_7037_11416)">
<path d="M1279.5 335.452C1130.04 679.26 1691.95 534.668 1743.67 586.952C1918.02 763.172 1833.2 538.543 1831.48 482.251C1829.76 425.959 1787.66 381.569 1737.45 383.102C1687.24 384.635 1533.76 -249.405 1279.5 335.452Z" fill="#FD5400"/>
</g>
<g opacity="0.25" filter="url(#filter1_f_7037_11416)">
<path d="M1565.89 686.635C1839.18 958.614 1274.25 1035.45 1248.67 1105.35C1162.46 1340.91 1148.44 1093.29 1127.31 1038.72C1106.18 984.156 1126.25 925.513 1172.15 907.741C1218.05 889.969 1100.98 223.968 1565.89 686.635Z" fill="url(#paint0_linear_7037_11416)" fill-opacity="0.6"/>
</g>
<g filter="url(#filter2_f_7037_11416)">
<ellipse rx="121.137" ry="4.58547" transform="matrix(0.981639 0.509814 -0.880429 0.0363139 1243.62 590.947)" fill="url(#paint1_linear_7037_11416)"/>
</g>
<g opacity="0.17" filter="url(#filter3_f_7037_11416)">
<path d="M-509.65 169.922C-695.52 484.607 -7.64691 347.526 55.0534 394.674C266.38 553.584 164.888 349.715 163.322 298.441C161.757 247.166 110.745 207.118 49.3837 208.992C-11.9773 210.866 -193.465 -365.393 -509.65 169.922Z" fill="#FD5400"/>
</g>
<g opacity="0.25" filter="url(#filter4_f_7037_11416)">
<path d="M608.614 -241.354C1010.24 115.198 134.058 262.124 89.6106 360.64C-60.1944 692.678 -63.9913 351.173 -92.6303 277.214C-121.269 203.255 -86.1103 120.695 -14.1005 92.8108C57.9094 64.9264 -74.5913 -847.89 608.614 -241.354Z" fill="url(#paint2_linear_7037_11416)" fill-opacity="0.6"/>
</g>
<g filter="url(#filter5_f_7037_11416)">
<ellipse rx="75.9408" ry="9.47654" transform="matrix(0.981639 0.509814 -0.880429 0.0363139 141.994 100.407)" fill="url(#paint3_linear_7037_11416)"/>
</g>
</g>
<defs>
<filter id="filter0_f_7037_11416" x="1020.3" y="-146.366" width="1067.31" height="1033.6" filterUnits="userSpaceOnUse" color-interpolation-filters="sRGB">
<feFlood flood-opacity="0" result="BackgroundImageFix"/>
<feBlend mode="normal" in="SourceGraphic" in2="BackgroundImageFix" result="shape"/>
<feGaussianBlur stdDeviation="117" result="effect1_foregroundBlur_7037_11416"/>
</filter>
<filter id="filter1_f_7037_11416" x="884.901" y="289.398" width="989.461" height="1149.87" filterUnits="userSpaceOnUse" color-interpolation-filters="sRGB">
<feFlood flood-opacity="0" result="BackgroundImageFix"/>
<feBlend mode="normal" in="SourceGraphic" in2="BackgroundImageFix" result="shape"/>
<feGaussianBlur stdDeviation="117" result="effect1_foregroundBlur_7037_11416"/>
</filter>
<filter id="filter2_f_7037_11416" x="1100.63" y="505.189" width="285.965" height="171.515" filterUnits="userSpaceOnUse" color-interpolation-filters="sRGB">
<feFlood flood-opacity="0" result="BackgroundImageFix"/>
<feBlend mode="normal" in="SourceGraphic" in2="BackgroundImageFix" result="shape"/>
<feGaussianBlur stdDeviation="12" result="effect1_foregroundBlur_7037_11416"/>
</filter>
<filter id="filter3_f_7037_11416" x="-775.413" y="-291.886" width="1198.46" height="980.083" filterUnits="userSpaceOnUse" color-interpolation-filters="sRGB">
<feFlood flood-opacity="0" result="BackgroundImageFix"/>
<feBlend mode="normal" in="SourceGraphic" in2="BackgroundImageFix" result="shape"/>
<feGaussianBlur stdDeviation="117" result="effect1_foregroundBlur_7037_11416"/>
</filter>
<filter id="filter4_f_7037_11416" x="-336.601" y="-682.951" width="1284.27" height="1420.29" filterUnits="userSpaceOnUse" color-interpolation-filters="sRGB">
<feFlood flood-opacity="0" result="BackgroundImageFix"/>
<feBlend mode="normal" in="SourceGraphic" in2="BackgroundImageFix" result="shape"/>
<feGaussianBlur stdDeviation="117" result="effect1_foregroundBlur_7037_11416"/>
</filter>
<filter id="filter5_f_7037_11416" x="42.9756" y="37.6904" width="198.037" height="125.435" filterUnits="userSpaceOnUse" color-interpolation-filters="sRGB">
<feFlood flood-opacity="0" result="BackgroundImageFix"/>
<feBlend mode="normal" in="SourceGraphic" in2="BackgroundImageFix" result="shape"/>
<feGaussianBlur stdDeviation="12" result="effect1_foregroundBlur_7037_11416"/>
</filter>
<linearGradient id="paint0_linear_7037_11416" x1="1008.07" y1="1130.3" x2="1368.78" y2="935.076" gradientUnits="userSpaceOnUse">
<stop stop-color="#FE5E00"/>
<stop offset="0.513608" stop-color="#F64562"/>
<stop offset="1" stop-color="#C22DE1"/>
</linearGradient>
<linearGradient id="paint1_linear_7037_11416" x1="-84.9179" y1="4.58547" x2="-66.7892" y2="-67.8057" gradientUnits="userSpaceOnUse">
<stop stop-color="#FE5E00"/>
<stop offset="0.484375" stop-color="#F64562"/>
<stop offset="1" stop-color="#C22DE1"/>
</linearGradient>
<linearGradient id="paint2_linear_7037_11416" x1="-282.979" y1="412.467" x2="275.324" y2="95.9305" gradientUnits="userSpaceOnUse">
<stop stop-color="#FE5E00"/>
<stop offset="0.513608" stop-color="#F64562"/>
<stop offset="1" stop-color="#C22DE1"/>
</linearGradient>
<linearGradient id="paint3_linear_7037_11416" x1="-53.2352" y1="9.47653" x2="24.8208" y2="-85.073" gradientUnits="userSpaceOnUse">
<stop stop-color="#FE5E00"/>
<stop offset="0.484375" stop-color="#F64562"/>
<stop offset="1" stop-color="#C22DE1"/>
</linearGradient>
<clipPath id="clip0_7037_11416">
<rect width="1488" height="751" fill="white"/>
</clipPath>
</defs>
</svg>
