<svg width="600" height="600" viewBox="0 0 600 600" fill="none" xmlns="http://www.w3.org/2000/svg">
<rect width="600" height="600" rx="300" fill="#202136"/>
<path d="M324.375 173.203C335.742 174.609 347.109 177.773 358.359 180.937C360.469 181.523 362.695 182.227 364.805 181.758C378.281 186.563 386.25 200.508 382.5 213.984C378.75 227.461 364.805 235.313 351.328 231.563C349.57 231.094 347.695 230.625 345.938 230.039C337.734 227.813 329.531 225.469 321.211 223.828C305.742 220.898 287.812 222.305 273.281 228.516C260.391 234.141 249.727 247.734 264.375 257.109C275.977 264.492 289.922 268.242 303.281 270.82C305.977 272.578 308.789 273.398 311.484 274.102C329.766 279.375 353.086 285.937 370.547 297.891C393.281 313.477 403.945 338.906 399.023 366.094C394.102 392.344 375.937 409.57 353.906 418.359C344.766 422.109 334.805 424.453 324.375 425.625V443.437C324.375 457.383 313.008 468.75 299.062 468.75C285.117 468.75 273.75 457.383 273.75 443.437V423.047C256.758 419.297 240.117 413.789 223.594 408.398C210.352 404.062 203.086 389.648 207.539 376.406C211.875 363.164 226.289 355.898 239.531 360.352C242.461 361.289 245.391 362.344 248.32 363.281C261.562 367.734 275.156 372.422 288.75 374.531C308.672 377.461 323.555 375.703 335.039 370.43C349.102 365.742 355.664 349.102 341.953 339.727C330.117 330.586 315.469 327.656 301.523 323.906C297.773 323.086 296.133 322.383 293.555 321.68C275.859 316.641 253.828 310.43 237.187 299.766C214.336 285.117 202.617 260.742 207.539 233.672C212.227 208.125 232.148 191.133 253.242 182.109C259.688 178.242 266.602 177.07 273.75 175.43V156.563C273.75 142.617 285.117 130.195 299.062 130.195C313.008 130.195 324.375 142.617 324.375 156.563V173.203ZM600 300C600 465.703 465.703 600 300 600C134.297 600 0 465.703 0 300C0 134.297 134.297 0 300 0C465.703 0 600 134.297 600 300ZM300 56.25C165.352 56.25 56.25 165.352 56.25 300C56.25 434.648 165.352 543.75 300 543.75C434.648 543.75 543.75 434.648 543.75 300C543.75 165.352 434.648 56.25 300 56.25Z" fill="url(#paint0_linear_6530_8426)"/>
<defs>
<linearGradient id="paint0_linear_6530_8426" x1="0" y1="300" x2="600" y2="300" gradientUnits="userSpaceOnUse">
<stop offset="0.171875" stop-color="#F4B731"/>
<stop offset="0.505208" stop-color="#54AE94"/>
<stop offset="0.859375" stop-color="#2775CA"/>
</linearGradient>
</defs>
</svg>
