<svg width="503" height="394" viewBox="0 0 503 394" fill="none" xmlns="http://www.w3.org/2000/svg">
<g clip-path="url(#clip0_6863_13944)">
<rect width="503" height="394" fill="#1F2136"/>
<path fill-rule="evenodd" clip-rule="evenodd" d="M231.134 -75.4691C190.298 -65.8165 185.346 -24.2854 220.072 17.2932C254.799 58.8718 316.053 84.7528 356.889 75.1002C397.724 65.4475 402.676 23.9164 367.95 -17.6622C333.224 -59.2407 271.969 -85.1218 231.134 -75.4691ZM203.188 -108.929C144.204 -94.9863 137.051 -34.9969 187.211 25.0611C237.371 85.119 325.85 122.503 384.834 108.56C443.819 94.6173 450.972 34.6279 400.812 -25.43C350.652 -85.488 262.172 -122.872 203.188 -108.929Z" fill="url(#paint0_linear_6863_13944)"/>
<path d="M261.972 7.38921C246.924 -10.6282 249.07 -28.625 266.765 -32.8078C284.46 -36.9906 311.004 -25.7755 326.052 -7.75811C341.1 10.2593 338.954 28.2561 321.259 32.4389C303.563 36.6217 277.02 25.4066 261.972 7.38921Z" fill="url(#paint1_linear_6863_13944)"/>
<path fill-rule="evenodd" clip-rule="evenodd" d="M163.365 -156.612C78.5186 -136.555 68.2288 -50.2631 140.382 36.128C212.536 122.519 339.81 176.294 424.656 156.238C509.503 136.182 519.793 49.8895 447.639 -36.5015C375.486 -122.893 248.212 -176.668 163.365 -156.612ZM135.42 -190.071C32.424 -165.725 19.9332 -60.9746 107.521 43.8958C195.108 148.766 349.606 214.044 452.602 189.698C555.597 165.352 568.088 60.601 480.501 -44.2694C392.913 -149.14 238.415 -214.418 135.42 -190.071Z" fill="url(#paint2_linear_6863_13944)"/>
<g filter="url(#filter0_f_6863_13944)">
<path fill-rule="evenodd" clip-rule="evenodd" d="M86.5163 -248.623C-48.24 -216.769 -64.5827 -79.7167 50.0141 57.4926C164.611 194.702 366.752 280.109 501.508 248.256C636.264 216.402 652.607 79.3491 538.01 -57.8601C423.413 -195.069 221.273 -280.477 86.5163 -248.623ZM44.598 -298.813C-117.382 -260.524 -137.026 -95.784 0.72159 69.1444C138.469 234.073 381.446 336.734 543.426 298.445C705.406 260.156 725.05 95.4164 587.303 -69.5119C449.555 -234.44 206.578 -337.102 44.598 -298.813Z" fill="url(#paint3_linear_6863_13944)"/>
</g>
<g filter="url(#filter1_f_6863_13944)">
<path fill-rule="evenodd" clip-rule="evenodd" d="M-4.30709 -357.368C-198.048 -311.572 -221.544 -114.53 -56.7868 82.7372C107.97 280.004 398.59 402.796 592.331 356.999C786.071 311.203 809.567 114.161 644.81 -83.1066C480.053 -280.374 189.434 -403.165 -4.30709 -357.368ZM-46.2255 -407.558C-267.19 -355.327 -293.987 -130.597 -106.079 94.389C81.8285 319.375 413.285 459.421 634.249 407.189C855.213 354.957 882.01 130.228 694.103 -94.7584C506.195 -319.745 174.739 -459.79 -46.2255 -407.558Z" fill="url(#paint4_linear_6863_13944)"/>
</g>
<g opacity="0.6">
<g opacity="0.4">
<path fill-rule="evenodd" clip-rule="evenodd" d="M308.76 62.3794C263.991 51.8255 221.051 15.163 212.852 -19.5087C204.653 -54.1803 234.3 -73.7316 279.07 -63.1777C323.839 -52.6238 366.779 -15.9612 374.978 18.7104C383.177 53.382 353.53 72.9333 308.76 62.3794ZM315.358 90.281C250.691 75.0365 188.667 22.0794 176.824 -28.0018C164.981 -78.083 207.804 -106.324 272.472 -91.0792C337.139 -75.8347 399.163 -22.8777 411.006 27.2035C422.849 77.2848 380.026 105.526 315.358 90.281Z" fill="url(#paint5_linear_6863_13944)"/>
<path d="M258.786 -8.67983C262.339 6.34454 280.946 22.2316 300.346 26.805C319.746 31.3784 332.593 22.9061 329.04 7.88176C325.488 -7.14261 306.88 -23.0297 287.48 -27.6031C268.08 -32.1764 255.233 -23.7042 258.786 -8.67983Z" fill="url(#paint6_linear_6863_13944)"/>
<path fill-rule="evenodd" clip-rule="evenodd" d="M324.758 130.038C231.736 108.109 142.517 31.9325 125.482 -40.1074C108.446 -112.147 170.045 -152.771 263.067 -130.842C356.089 -108.913 445.308 -32.7366 462.343 39.3033C479.379 111.343 417.78 151.966 324.758 130.038ZM331.356 157.939C218.436 131.32 110.133 38.849 89.4538 -48.6005C68.7744 -136.05 143.55 -185.363 256.469 -158.743C369.388 -132.124 477.692 -39.6531 498.371 47.7965C519.051 135.246 444.275 184.559 331.356 157.939Z" fill="url(#paint7_linear_6863_13944)"/>
<g filter="url(#filter2_f_6863_13944)">
<path fill-rule="evenodd" clip-rule="evenodd" d="M342.903 206.769C195.163 171.941 53.4622 50.9542 26.4058 -63.4622C-0.65048 -177.879 97.1833 -242.398 244.924 -207.57C392.664 -172.742 534.365 -51.7556 561.421 62.6608C588.477 177.077 490.644 241.596 342.903 206.769ZM352.8 248.621C175.213 206.757 4.88616 61.3289 -27.6361 -76.2019C-60.1583 -213.733 57.4398 -291.286 235.027 -249.422C412.614 -207.558 582.941 -62.1303 615.463 75.4005C647.985 212.931 530.387 290.485 352.8 248.621Z" fill="url(#paint8_linear_6863_13944)"/>
</g>
</g>
</g>
</g>
<defs>
<filter id="filter0_f_6863_13944" x="-98.998" y="-314.822" width="786.02" height="629.277" filterUnits="userSpaceOnUse" color-interpolation-filters="sRGB">
<feFlood flood-opacity="0" result="BackgroundImageFix"/>
<feBlend mode="normal" in="SourceGraphic" in2="BackgroundImageFix" result="shape"/>
<feGaussianBlur stdDeviation="4" result="effect1_foregroundBlur_6863_13944"/>
</filter>
<filter id="filter1_f_6863_13944" x="-251.197" y="-438.484" width="1090.42" height="876.6" filterUnits="userSpaceOnUse" color-interpolation-filters="sRGB">
<feFlood flood-opacity="0" result="BackgroundImageFix"/>
<feBlend mode="normal" in="SourceGraphic" in2="BackgroundImageFix" result="shape"/>
<feGaussianBlur stdDeviation="10" result="effect1_foregroundBlur_6863_13944"/>
</filter>
<filter id="filter2_f_6863_13944" x="-43.041" y="-270.771" width="673.908" height="540.742" filterUnits="userSpaceOnUse" color-interpolation-filters="sRGB">
<feFlood flood-opacity="0" result="BackgroundImageFix"/>
<feBlend mode="normal" in="SourceGraphic" in2="BackgroundImageFix" result="shape"/>
<feGaussianBlur stdDeviation="5" result="effect1_foregroundBlur_6863_13944"/>
</filter>
<linearGradient id="paint0_linear_6863_13944" x1="156.599" y1="-47.8206" x2="302.695" y2="-169.84" gradientUnits="userSpaceOnUse">
<stop stop-color="#27273F" stop-opacity="0.7625"/>
<stop offset="1" stop-color="#27273F" stop-opacity="0.01"/>
</linearGradient>
<linearGradient id="paint1_linear_6863_13944" x1="252.788" y1="-14.4753" x2="296.617" y2="-51.081" gradientUnits="userSpaceOnUse">
<stop stop-color="#27273F" stop-opacity="0.7625"/>
<stop offset="1" stop-color="#27273F" stop-opacity="0.01"/>
</linearGradient>
<linearGradient id="paint2_linear_6863_13944" x1="54.0676" y1="-83.3668" x2="309.174" y2="-296.431" gradientUnits="userSpaceOnUse">
<stop stop-color="#27273F" stop-opacity="0.7625"/>
<stop offset="1" stop-color="#27273F" stop-opacity="0.01"/>
</linearGradient>
<linearGradient id="paint3_linear_6863_13944" x1="-83.3433" y1="-131" x2="317.859" y2="-466.083" gradientUnits="userSpaceOnUse">
<stop stop-color="#27273F" stop-opacity="0.7625"/>
<stop offset="1" stop-color="#27273F" stop-opacity="0.01"/>
</linearGradient>
<linearGradient id="paint4_linear_6863_13944" x1="-220.756" y1="-178.637" x2="326.543" y2="-635.739" gradientUnits="userSpaceOnUse">
<stop stop-color="#27273F" stop-opacity="0.7625"/>
<stop offset="1" stop-color="#27273F" stop-opacity="0.01"/>
</linearGradient>
<linearGradient id="paint5_linear_6863_13944" x1="217.722" y1="34.3229" x2="420.782" y2="-13.695" gradientUnits="userSpaceOnUse">
<stop stop-color="#27273F" stop-opacity="0.7625"/>
<stop offset="1" stop-color="#27273F" stop-opacity="0.01"/>
</linearGradient>
<linearGradient id="paint6_linear_6863_13944" x1="271.055" y1="10.0176" x2="331.973" y2="-4.3878" gradientUnits="userSpaceOnUse">
<stop stop-color="#27273F" stop-opacity="0.7625"/>
<stop offset="1" stop-color="#27273F" stop-opacity="0.01"/>
</linearGradient>
<linearGradient id="paint7_linear_6863_13944" x1="160.868" y1="60.228" x2="515.441" y2="-23.6187" gradientUnits="userSpaceOnUse">
<stop stop-color="#27273F" stop-opacity="0.7625"/>
<stop offset="1" stop-color="#27273F" stop-opacity="0.01"/>
</linearGradient>
<linearGradient id="paint8_linear_6863_13944" x1="84.6768" y1="94.9514" x2="642.309" y2="-36.9131" gradientUnits="userSpaceOnUse">
<stop stop-color="#27273F" stop-opacity="0.7625"/>
<stop offset="1" stop-color="#27273F" stop-opacity="0.01"/>
</linearGradient>
<clipPath id="clip0_6863_13944">
<rect width="503" height="394" fill="white"/>
</clipPath>
</defs>
</svg>
