<svg width="90" height="71" viewBox="0 0 90 71" fill="none" xmlns="http://www.w3.org/2000/svg">
<path d="M16.4261 0.850849L16.3398 0.801461L16.254 0.851526L0.913391 9.80009L0.828112 9.84984V9.94857V27.7627V27.8617L0.913706 27.9114L13.6633 35.3124L0.913706 42.7134L0.828112 42.7631V42.8621V60.5322V60.6301L0.912312 60.6801L16.2491 69.7768L16.3355 69.828L16.4225 69.778L29.4956 62.2575L29.4969 62.2568L44.9164 53.5684L60.3361 62.2582L60.3373 62.2589L73.4363 69.7759L73.5228 69.8256L73.6089 69.775L89.0863 60.6839L89.1712 60.6341V60.5357V42.8604V42.7611L89.0853 42.7115L76.2767 35.3124L89.0853 27.9133L89.1712 27.8636V27.7644V9.94516V9.84595L89.0853 9.79632L73.604 0.853278L73.5185 0.803879L73.4327 0.852877L44.8965 17.1593L16.4261 0.850849ZM3.59123 13.0377L27.8645 27.0688L16.4152 33.7149L3.59123 26.2707V13.0377ZM30.6181 25.4689L4.9609 10.6379L16.3524 3.99299L42.1336 18.7611L30.6181 25.4689ZM56.459 27.0511L44.8973 33.5859L33.3916 27.0511L44.8973 20.3489L56.459 27.0511ZM86.4081 26.2688L73.5147 33.7169L62.0062 27.0688L86.4081 13.0319V26.2688ZM85.0233 10.6408L59.2425 25.4709L47.6652 18.7596L73.511 3.99057L85.0233 10.6408ZM85.0276 43.5586L73.5168 50.2079L47.674 35.1905L59.2324 28.6574L85.0276 43.5586ZM74.8963 65.8143V52.602L86.4081 45.9521V59.0525L74.8963 65.8143ZM46.2772 37.5746L72.1332 52.5997V65.8423L46.2772 51.0046V37.5746ZM43.5141 37.5775V51.0055L17.7277 65.8395V52.5987L43.5141 37.5775ZM16.3466 50.2055L4.95659 43.5615L30.6283 28.6593L42.1249 35.189L16.3466 50.2055ZM3.59123 59.0564V45.9639L14.9646 52.5982V65.8023L3.59123 59.0564Z" fill="#282E3F" stroke="#282E3F" stroke-width="0.343776"/>
</svg>
